<svg height="32" style="enable-background:new 0 0 32 32;" version="1.1" width="32" xml:space="preserve" xmlns="http://www.w3.org/2000/svg" xmlns:xlink="http://www.w3.org/1999/xlink"><rect id="backgroundrect" width="100%" height="100%" x="0" y="0" fill="none" stroke="none"/><g class="currentLayer" style=""><title>Layer 1</title><path d="M28.66666668653488,13.333333313465118 H9.466666877269745 l4.619999885559082,-4.619999885559082 C14.480666816234589,8.319333374500275 14.666666686534882,7.849333107471466 14.666666686534882,7.333333313465118 c0,-0.984000027179718 -0.8130000233650208,-2 -2,-2 c-0.531000018119812,0 -0.9940000176429749,0.19300000369548798 -1.3799999952316284,0.5799999833106995 l-7.958000183105469,7.958000183105469 C3.0006667971611023,14.199333488941193 2.6666666865348816,14.604333221912384 2.6666666865348816,15.333333313465118 s0.27900001406669617,1.0800000429153442 0.6460000276565552,1.4470000267028809 l7.973999977111816,7.9730000495910645 C11.672666251659393,25.140332520008087 12.13566654920578,25.33333331346512 12.666666686534882,25.33333331346512 c1.187999963760376,0 2,-1.0160000324249268 2,-2 c0,-0.515999972820282 -0.1860000044107437,-0.9860000014305115 -0.5799999833106995,-1.3799999952316284 L9.466666877269745,17.33333331346512 H28.66666668653488 c1.1039999723434448,0 2,-0.8960000276565552 2,-2 S29.770666778087616,13.333333313465118 28.66666668653488,13.333333313465118 z" id="svg_1" class="selected" transform="rotate(179.474, 16.6667, 15.3333)" fill="#b6b6b6" fill-opacity="1"/></g></svg>